<?xml version="1.0" encoding="iso-8859-1"?>
<!-- Generator: Adobe Illustrator 19.0.0, SVG Export Plug-In . SVG Version: 6.00 Build 0)  -->
<svg version="1.1" id="Layer_1" xmlns="http://www.w3.org/2000/svg" xmlns:xlink="http://www.w3.org/1999/xlink" x="0px" y="0px"
	 viewBox="0 0 472.615 472.615" style="enable-background:new 0 0 472.615 472.615;" xml:space="preserve">
<g>
	<g>
		<path d="M472.615,205.762h-25.35c-12.786-38.004-48.659-65.454-90.942-65.454c-43.176,0-79.826,28.702-91.826,68.07
			c-7.581-5.005-17.296-8.106-28.194-8.106c-10.9,0-20.619,3.103-28.201,8.112c-12-39.372-48.65-68.076-91.827-68.076
			c-42.283,0-78.156,27.45-90.942,65.454H0v19.692h20.93c-0.403,3.567-0.656,7.179-0.656,10.853c0,52.972,43.028,96,96,96
			c52.874,0,96-43.028,96-96c0-0.551-0.074-1.084-0.083-1.633h0.058c0-6.956,9.881-14.711,24.053-14.711
			c14.178,0,24.053,7.755,24.053,14.711h0.05c-0.009,0.548-0.083,1.081-0.083,1.633c0,52.972,43.126,96,96,96
			c52.972,0,96-43.028,96-96c0-3.675-0.253-7.286-0.657-10.853h20.949V205.762z"/>
	</g>
</g>
<g>
</g>
<g>
</g>
<g>
</g>
<g>
</g>
<g>
</g>
<g>
</g>
<g>
</g>
<g>
</g>
<g>
</g>
<g>
</g>
<g>
</g>
<g>
</g>
<g>
</g>
<g>
</g>
<g>
</g>
</svg>
