<?xml version="1.0" encoding="UTF-8" ?>
<!DOCTYPE svg PUBLIC "-//W3C//DTD SVG 1.1//EN" "http://www.w3.org/Graphics/SVG/1.1/DTD/svg11.dtd">
<svg width="393pt" height="394pt" viewBox="0 0 393 394" version="1.1" xmlns="http://www.w3.org/2000/svg">
<g id="#ffffffff">
</g>
<g id="#000000ff">
<path fill="#000000" opacity="1.00" d=" M 3.90 17.93 C 3.57 10.36 10.36 3.57 17.93 3.89 C 113.64 3.85 209.35 3.85 305.06 3.89 C 309.39 3.51 313.28 7.70 312.46 12.00 C 311.99 15.54 308.53 18.17 305.01 17.92 C 248.39 17.98 191.76 17.87 135.13 17.97 C 135.12 52.32 135.12 86.68 135.13 121.03 C 215.42 121.10 295.71 121.08 376.00 121.04 C 376.06 86.68 376.06 52.32 376.00 17.96 C 361.31 17.87 346.62 18.00 331.93 17.90 C 328.15 18.10 324.71 14.78 324.77 11.00 C 324.59 7.14 328.10 3.70 331.95 3.90 C 346.97 3.87 362.01 3.78 377.04 3.95 C 384.26 4.09 390.38 10.75 390.10 17.94 C 390.17 136.29 390.09 254.64 390.14 372.99 C 390.29 377.17 389.88 381.72 387.01 385.01 C 384.20 388.65 379.54 390.33 375.03 390.13 C 256.00 390.11 136.97 390.17 17.93 390.11 C 10.36 390.40 3.57 383.63 3.90 376.06 C 3.86 256.68 3.86 137.31 3.90 17.93 M 18.00 17.96 C 17.95 98.26 17.94 178.57 18.00 258.87 C 35.02 258.88 52.04 258.83 69.05 258.89 C 72.29 258.70 75.49 260.88 76.27 264.07 C 77.52 268.13 74.26 272.77 70.00 272.86 C 52.67 273.05 35.33 272.84 18.00 272.96 C 17.94 307.32 17.94 341.68 18.00 376.04 C 98.29 376.08 178.58 376.10 258.87 376.03 C 258.88 341.68 258.88 307.32 258.87 272.97 C 204.56 272.86 150.24 273.00 95.93 272.91 C 93.12 273.00 90.38 271.28 89.29 268.68 C 87.36 264.59 90.44 259.20 95.00 258.97 C 103.66 258.71 112.33 258.94 121.00 258.87 C 121.06 178.57 121.05 98.26 121.00 17.96 C 86.67 17.92 52.33 17.91 18.00 17.96 M 135.13 135.14 C 135.12 176.38 135.12 217.62 135.13 258.86 C 176.38 258.87 217.62 258.87 258.87 258.86 C 258.88 217.62 258.88 176.38 258.87 135.14 C 217.62 135.13 176.38 135.13 135.13 135.14 M 273.00 135.13 C 272.94 215.43 272.95 295.74 273.00 376.04 C 307.33 376.08 341.67 376.08 376.00 376.04 C 376.05 295.74 376.06 215.43 376.00 135.13 C 341.67 135.13 307.33 135.14 273.00 135.13 Z" />
</g>
</svg>
